<?xml version="1.0" encoding="UTF-8" standalone="no"?>
<!-- Created with Inkscape (http://www.inkscape.org/) -->

<svg
   xmlns:dc="http://purl.org/dc/elements/1.1/"
   xmlns:cc="http://creativecommons.org/ns#"
   xmlns:rdf="http://www.w3.org/1999/02/22-rdf-syntax-ns#"
   xmlns:svg="http://www.w3.org/2000/svg"
   xmlns="http://www.w3.org/2000/svg"
   xmlns:sodipodi="http://sodipodi.sourceforge.net/DTD/sodipodi-0.dtd"
   xmlns:inkscape="http://www.inkscape.org/namespaces/inkscape"
   width="512mm"
   height="512mm"
   viewBox="0 0 1814.1732 1814.1732"
   id="svg12035"
   version="1.1"
   inkscape:version="0.91 r13725"
   sodipodi:docname="laptop.svg">
  <defs
     id="defs12037">
    <clipPath
       clipPathUnits="userSpaceOnUse"
       id="clipPath4870">
      <path
         d="m 0,4629.055 3590.051,0 L 3590.051,0 0,0 0,4629.055 Z"
         id="path4872"
         inkscape:connector-curvature="0" />
    </clipPath>
    <clipPath
       clipPathUnits="userSpaceOnUse"
       id="clipPath4890">
      <path
         d="m 345.273,2725.925 0,-102.258 c 0,-39.537 32.045,-71.584 71.581,-71.584 l 0,0 c 39.536,0 71.581,32.047 71.581,71.584 l 0,0 0,102.258 c 0,39.535 -32.045,71.582 -71.581,71.582 l 0,0 c -39.536,0 -71.581,-32.047 -71.581,-71.582"
         id="path4892"
         inkscape:connector-curvature="0" />
    </clipPath>
    <clipPath
       clipPathUnits="userSpaceOnUse"
       id="clipPath4898">
      <path
         d="m 439.58,2699.84 51.364,0 0,-20.07 -51.364,0 0,20.07 z"
         id="path4900"
         inkscape:connector-curvature="0" />
    </clipPath>
    <clipPath
       clipPathUnits="userSpaceOnUse"
       id="clipPath4914">
      <path
         d="m 439.58,2666.93 51.364,0 0,-20.06 -51.364,0 0,20.06 z"
         id="path4916"
         inkscape:connector-curvature="0" />
    </clipPath>
    <clipPath
       clipPathUnits="userSpaceOnUse"
       id="clipPath4930">
      <path
         d="m 439.58,2634.03 51.364,0 0,-20.07 -51.364,0 0,20.07 z"
         id="path4932"
         inkscape:connector-curvature="0" />
    </clipPath>
    <clipPath
       clipPathUnits="userSpaceOnUse"
       id="clipPath4946">
      <path
         d="m 343.27,2699.84 51.365,0 0,-20.07 -51.365,0 0,20.07 z"
         id="path4948"
         inkscape:connector-curvature="0" />
    </clipPath>
    <clipPath
       clipPathUnits="userSpaceOnUse"
       id="clipPath4962">
      <path
         d="m 343.27,2666.93 51.365,0 0,-20.06 -51.365,0 0,20.06 z"
         id="path4964"
         inkscape:connector-curvature="0" />
    </clipPath>
    <clipPath
       clipPathUnits="userSpaceOnUse"
       id="clipPath4978">
      <path
         d="m 343.27,2634.03 51.365,0 0,-20.07 -51.365,0 0,20.07 z"
         id="path4980"
         inkscape:connector-curvature="0" />
    </clipPath>
    <clipPath
       clipPathUnits="userSpaceOnUse"
       id="clipPath4994">
      <path
         d="m 345.273,2725.925 0,-102.258 c 0,-39.537 32.045,-71.584 71.581,-71.584 l 0,0 c 39.536,0 71.581,32.047 71.581,71.584 l 0,0 0,102.258 c 0,39.535 -32.045,71.582 -71.581,71.582 l 0,0 c -39.536,0 -71.581,-32.047 -71.581,-71.582"
         id="path4996"
         inkscape:connector-curvature="0" />
    </clipPath>
    <clipPath
       clipPathUnits="userSpaceOnUse"
       id="clipPath5002">
      <path
         d="m 253.382,2879.61 208.669,0 0,-208.67 -208.669,0 0,208.67 z"
         id="path5004"
         inkscape:connector-curvature="0" />
    </clipPath>
    <clipPath
       clipPathUnits="userSpaceOnUse"
       id="clipPath5018">
      <path
         d="m 0,4629.055 3590.051,0 L 3590.051,0 0,0 0,4629.055 Z"
         id="path5020"
         inkscape:connector-curvature="0" />
    </clipPath>
    <clipPath
       clipPathUnits="userSpaceOnUse"
       id="clipPath5026">
      <path
         d="m 410.57,2791 17.913,0 0,-11.9 -17.913,0 0,11.9 z"
         id="path5028"
         inkscape:connector-curvature="0" />
    </clipPath>
    <clipPath
       clipPathUnits="userSpaceOnUse"
       id="clipPath5042">
      <path
         d="m 350.468,2786.98 55.586,0 0,-80.15 -55.586,0 0,80.15 z"
         id="path5044"
         inkscape:connector-curvature="0" />
    </clipPath>
    <clipPath
       clipPathUnits="userSpaceOnUse"
       id="clipPath5058">
      <path
         d="m 508.887,2613.647 c -9.311,-40.973 -48.244,-71.581 -92.034,-71.581 l 0,0 c -43.788,0 -82.721,30.608 -92.033,71.581 l 0,0 -20.451,0 c 9.027,-49.073 51.774,-87.021 102.259,-91.574 l 0,0 0,-20.911 -10.226,0 c -5.646,0 -10.226,-4.583 -10.226,-10.225 l 0,0 c 0,-5.652 4.58,-10.226 10.226,-10.226 l 0,0 40.904,0 c 5.647,0 10.225,4.574 10.225,10.226 l 0,0 c 0,5.642 -4.578,10.225 -10.225,10.225 l 0,0 -10.226,0 0,20.911 c 50.485,4.553 93.232,42.501 102.26,91.574 l 0,0 -20.453,0 z"
         id="path5060"
         inkscape:connector-curvature="0" />
    </clipPath>
    <clipPath
       clipPathUnits="userSpaceOnUse"
       id="clipPath5066">
      <path
         d="m 404.801,2528.35 40.664,0 0,-27.19 -40.664,0 0,27.19 z"
         id="path5068"
         inkscape:connector-curvature="0" />
    </clipPath>
    <clipPath
       clipPathUnits="userSpaceOnUse"
       id="clipPath5082">
      <path
         d="m 0,4629.055 3590.051,0 L 3590.051,0 0,0 0,4629.055 Z"
         id="path5084"
         inkscape:connector-curvature="0" />
    </clipPath>
    <clipPath
       clipPathUnits="userSpaceOnUse"
       id="clipPath5094">
      <path
         d="m 509.443,2616.847 c -0.656,-3.277 -1.694,-6.506 -2.782,-9.66 l 0,0 c -0.507,-1.471 -1.044,-2.931 -1.61,-4.381 l 0,0 c -0.222,-0.567 -0.454,-1.129 -0.68,-1.694 l 0,0 c -0.054,-0.125 -0.107,-0.25 -0.164,-0.375 l 0,0 c -1.639,-3.598 -3.368,-7.14 -5.315,-10.584 l 0,0 c -2.347,-4.151 -4.976,-8.102 -7.771,-11.963 l 0,0 c -0.149,-0.204 -0.251,-0.38 -0.324,-0.531 l 0,0 c -0.22,-0.236 -0.45,-0.46 -0.568,-0.605 l 0,0 c -0.824,-1.017 -1.666,-2.018 -2.527,-3.004 l 0,0 c -1.616,-1.849 -3.295,-3.641 -5.039,-5.37 l 0,0 c -1.997,-1.978 -4.075,-3.874 -6.232,-5.677 l 0,0 c -0.657,-0.55 -4.134,-3.152 -1.281,-1.075 l 0,0 c -1.09,-0.793 -2.166,-1.603 -3.276,-2.371 l 0,0 c -4.942,-3.421 -10.18,-6.219 -15.606,-8.779 l 0,0 c -0.154,-0.067 -0.284,-0.123 -0.393,-0.172 l 0,0 c -0.303,-0.122 -0.605,-0.247 -0.909,-0.366 l 0,0 c -0.572,-0.224 -1.146,-0.444 -1.722,-0.659 l 0,0 c -1.467,-0.545 -2.947,-1.057 -4.437,-1.535 l 0,0 c -3.268,-1.047 -6.587,-1.93 -9.94,-2.661 l 0,0 c -1.841,-0.402 -3.693,-0.758 -5.552,-1.068 l 0,0 c -0.747,-0.124 -1.497,-0.233 -2.248,-0.342 l 0,0 c -0.376,-0.043 -1.121,-0.135 -1.43,-0.169 l 0,0 c -3.939,-0.426 -7.891,-0.649 -11.851,-0.739 l 0,0 c -0.206,0 -0.405,-0.024 -0.606,-0.043 l 0,0 c -0.202,0.019 -0.402,0.039 -0.608,0.043 l 0,0 c -3.96,0.09 -7.911,0.313 -11.851,0.739 l 0,0 c -0.309,0.034 -1.054,0.126 -1.43,0.169 l 0,0 c -0.75,0.109 -1.501,0.218 -2.248,0.342 l 0,0 c -1.859,0.31 -3.711,0.666 -5.552,1.068 l 0,0 c -3.353,0.731 -6.672,1.614 -9.94,2.661 l 0,0 c -1.49,0.478 -2.969,0.99 -4.436,1.535 l 0,0 c -0.577,0.215 -1.151,0.435 -1.723,0.659 l 0,0 c -0.303,0.119 -0.606,0.244 -0.908,0.366 l 0,0 c -0.11,0.049 -0.241,0.105 -0.392,0.172 l 0,0 c -5.428,2.56 -10.666,5.358 -15.608,8.779 l 0,0 c -1.11,0.768 -2.185,1.578 -3.275,2.371 l 0,0 c 2.852,-2.077 -0.624,0.525 -1.282,1.075 l 0,0 c -2.157,1.803 -4.235,3.699 -6.232,5.677 l 0,0 c -1.743,1.729 -3.424,3.521 -5.039,5.37 l 0,0 c -0.861,0.986 -1.703,1.987 -2.527,3.004 l 0,0 c -0.117,0.145 -0.348,0.369 -0.568,0.605 l 0,0 c -0.072,0.151 -0.175,0.327 -0.324,0.531 l 0,0 c -2.795,3.861 -5.424,7.812 -7.771,11.963 l 0,0 c -1.947,3.444 -3.675,6.986 -5.315,10.584 l 0,0 c -0.055,0.125 -0.11,0.25 -0.163,0.375 l 0,0 c -0.227,0.565 -0.459,1.127 -0.68,1.694 l 0,0 c -0.566,1.45 -1.105,2.91 -1.611,4.381 l 0,0 c -1.088,3.154 -2.126,6.383 -2.78,9.66 l 0,0 c -1.275,6.379 -8.863,10.043 -14.81,8.409 l 0,0 c -6.648,-1.827 -9.686,-8.411 -8.408,-14.809 l 0,0 c 2.141,-10.719 6.906,-21.345 12.099,-30.865 l 0,0 c 11.212,-20.552 28.499,-38.297 49.722,-48.475 l 0,0 c 16.649,-7.984 34.628,-11.701 53.052,-12.117 l 0,0 c 0.203,0 0.406,0.01 0.608,0.021 l 0,0 c 0.202,-0.011 0.403,-0.025 0.606,-0.021 l 0,0 c 18.424,0.416 36.403,4.133 53.052,12.117 l 0,0 c 21.223,10.178 38.511,27.923 49.723,48.475 l 0,0 c 5.193,9.52 9.958,20.146 12.099,30.865 l 0,0 c 1.277,6.398 -1.761,12.982 -8.409,14.809 l 0,0 c -0.954,0.262 -1.951,0.388 -2.957,0.388 l 0,0 c -5.263,0 -10.782,-3.442 -11.851,-8.797"
         id="path5096"
         inkscape:connector-curvature="0" />
    </clipPath>
    <clipPath
       clipPathUnits="userSpaceOnUse"
       id="clipPath5102">
      <path
         d="m 353.901,2620.38 179.045,0 0,-109.15 -179.045,0 0,109.15 z"
         id="path5104"
         inkscape:connector-curvature="0" />
    </clipPath>
    <clipPath
       clipPathUnits="userSpaceOnUse"
       id="clipPath2734">
      <path
         d="m 0,4629.055 3590.051,0 L 3590.051,0 0,0 0,4629.055 Z"
         id="path2736"
         inkscape:connector-curvature="0" />
    </clipPath>
    <clipPath
       clipPathUnits="userSpaceOnUse"
       id="clipPath2750">
      <path
         d="m 1537.76,2750.75 14.72,0 0,-14.71 -14.72,0 0,14.71 z"
         id="path2752"
         inkscape:connector-curvature="0" />
    </clipPath>
    <clipPath
       clipPathUnits="userSpaceOnUse"
       id="clipPath2766">
      <path
         d="m 1391.85,2751.33 21.14,0 0,-23.36 -21.14,0 0,23.36 z"
         id="path2768"
         inkscape:connector-curvature="0" />
    </clipPath>
    <clipPath
       clipPathUnits="userSpaceOnUse"
       id="clipPath2794">
      <path
         d="m 1412.992,2731.245 0,-166.86 264.205,-0.046 0,166.906 -264.205,0 z"
         id="path2796"
         inkscape:connector-curvature="0" />
    </clipPath>
    <clipPath
       clipPathUnits="userSpaceOnUse"
       id="clipPath2802">
      <path
         d="m 1332.89,2815.21 241.39,0 0,-241.4 -241.39,0 0,241.4 z"
         id="path2804"
         inkscape:connector-curvature="0" />
    </clipPath>
    <clipPath
       clipPathUnits="userSpaceOnUse"
       id="clipPath2818">
      <path
         d="m 1354.857,2548.527 c -7.455,0 -13.554,-6.099 -13.554,-13.554 l 0,0 c 0,-7.454 6.099,-13.554 13.554,-13.554 l 0,0 384.258,0 c 7.455,0 13.554,6.1 13.554,13.554 l 0,0 c 0,7.455 -6.099,13.554 -13.554,13.554 l 0,0 -384.258,0 z"
         id="path2820"
         inkscape:connector-curvature="0" />
    </clipPath>
    <clipPath
       clipPathUnits="userSpaceOnUse"
       id="clipPath2826">
      <path
         d="m 1331.29,2534.97 429.69,0 0,-82.83 -429.69,0 0,82.83 z"
         id="path2828"
         inkscape:connector-curvature="0" />
    </clipPath>
  </defs>
  <sodipodi:namedview
     id="base"
     pagecolor="#ffffff"
     bordercolor="#666666"
     borderopacity="1.0"
     inkscape:pageopacity="0.0"
     inkscape:pageshadow="2"
     inkscape:zoom="0.35"
     inkscape:cx="700.94875"
     inkscape:cy="862.85714"
     inkscape:document-units="px"
     inkscape:current-layer="layer1"
     showgrid="false"
     inkscape:window-width="1855"
     inkscape:window-height="1056"
     inkscape:window-x="65"
     inkscape:window-y="24"
     inkscape:window-maximized="1" />
  <metadata
     id="metadata12040">
    <rdf:RDF>
      <cc:Work
         rdf:about="">
        <dc:format>image/svg+xml</dc:format>
        <dc:type
           rdf:resource="http://purl.org/dc/dcmitype/StillImage" />
        <dc:title></dc:title>
      </cc:Work>
    </rdf:RDF>
  </metadata>
  <g
     inkscape:label="Capa 1"
     inkscape:groupmode="layer"
     id="layer1"
     transform="translate(0,761.81102)">
    <g
       transform="matrix(4.2435093,0,0,-4.2435093,-5657.5072,11279.777)"
       id="g10240">
      <g
         id="g2730">
        <g
           clip-path="url(#clipPath2734)"
           id="g2732">
          <g
             transform="translate(1706.8066,2550.5337)"
             id="g2738">
            <path
               inkscape:connector-curvature="0"
               id="path2740"
               style="fill:#373435;fill-opacity:1;fill-rule:nonzero;stroke:none"
               d="m 0,0 0,177.052 c 0,16.133 -13.079,29.212 -29.212,29.212 l -265.924,0 c -16.134,0 -29.213,-13.079 -29.213,-29.213 l 0,-177.051 c 0,-5.413 4.388,-9.801 9.801,-9.801 l 304.747,0 C -4.388,-9.801 0,-5.413 0,0" />
          </g>
          <g
             transform="translate(1412.9912,2731.2446)"
             id="g2742">
            <path
               inkscape:connector-curvature="0"
               id="path2744"
               style="fill:#f2f2f2;fill-opacity:1;fill-rule:nonzero;stroke:none"
               d="m 0,0 264.206,0 0,-166.906 L 0,-166.86 0,0 Z" />
          </g>
          <g
             id="g2746">
            <g
               id="g2748" />
            <g
               id="g2754">
              <g
                 style="opacity:0.47000104"
                 id="g2756"
                 clip-path="url(#clipPath2750)">
                <g
                   id="g2758"
                   transform="translate(1545.125,2750.7456)">
                  <path
                     inkscape:connector-curvature="0"
                     id="path2760"
                     style="fill:#bfbfbf;fill-opacity:1;fill-rule:nonzero;stroke:none"
                     d="m 0,0 c -4.068,0 -7.36,-3.292 -7.36,-7.356 0,-4.057 3.292,-7.352 7.36,-7.352 4.069,0 7.356,3.295 7.356,7.352 C 7.356,-3.292 4.069,0 0,0" />
                </g>
              </g>
            </g>
          </g>
          <g
             id="g2762">
            <g
               id="g2764" />
            <g
               id="g2770">
              <g
                 style="opacity:0.30000299"
                 id="g2772"
                 clip-path="url(#clipPath2766)">
                <g
                   id="g2774"
                   transform="translate(1395.8647,2727.9795)">
                  <path
                     inkscape:connector-curvature="0"
                     id="path2776"
                     style="fill:#ffffff;fill-opacity:1;fill-rule:nonzero;stroke:none"
                     d="m 0,0 c -2.034,-0.155 -3.809,1.367 -3.964,3.403 -0.779,10.215 6.898,19.161 17.115,19.941 2.034,0.155 3.809,-1.367 3.965,-3.403 0.155,-2.036 -1.369,-3.809 -3.403,-3.964 C 7.559,15.508 2.934,10.119 3.403,3.964 3.558,1.929 2.035,0.155 0,0" />
                </g>
              </g>
            </g>
          </g>
          <g
             transform="translate(1739.1152,2521.4194)"
             id="g2778">
            <path
               inkscape:connector-curvature="0"
               id="path2780"
               style="fill:#e7e7e8;fill-opacity:1;fill-rule:nonzero;stroke:none"
               d="m 0,0 -384.258,0 c -7.455,0 -13.554,6.1 -13.554,13.554 0,7.455 6.099,13.554 13.554,13.554 L 0,27.108 c 7.455,0 13.554,-6.099 13.554,-13.554 C 13.554,6.1 7.455,0 0,0" />
          </g>
          <g
             transform="translate(1574.7524,2543.4238)"
             id="g2782">
            <path
               inkscape:connector-curvature="0"
               id="path2784"
               style="fill:#a9abae;fill-opacity:1;fill-rule:nonzero;stroke:none"
               d="m 0,0 c 0,-2.685 -2.177,-4.862 -4.86,-4.862 l -49.773,0 c -2.687,0 -4.862,2.177 -4.862,4.862 0,2.684 2.175,4.859 4.862,4.859 l 49.773,0 C -2.177,4.859 0,2.684 0,0" />
          </g>
          <g
             transform="translate(1732.9082,2536.7676)"
             id="g2786">
            <path
               inkscape:connector-curvature="0"
               id="path2788"
               style="fill:#c0c0c0;fill-opacity:1;fill-rule:nonzero;stroke:none"
               d="m 0,0 -11.217,0 c -0.813,0 -1.472,-0.658 -1.472,-1.47 0,-0.811 0.659,-1.47 1.472,-1.47 L 0,-2.94 c 0.811,0 1.47,0.659 1.47,1.47 C 1.47,-0.658 0.811,0 0,0" />
          </g>
        </g>
      </g>
      <g
         id="g2790">
        <g
           clip-path="url(#clipPath2794)"
           id="g2792">
          <g
             id="g2798">
            <g
               id="g2800" />
            <g
               id="g2806">
              <g
                 style="opacity:0.53999299"
                 id="g2808"
                 clip-path="url(#clipPath2802)">
                <g
                   id="g2810"
                   transform="translate(1574.2847,2694.5098)">
                  <path
                     inkscape:connector-curvature="0"
                     id="path2812"
                     style="fill:#ffffff;fill-opacity:1;fill-rule:nonzero;stroke:none"
                     d="m 0,0 c 0,-66.659 -54.037,-120.696 -120.695,-120.696 -66.659,0 -120.696,54.037 -120.696,120.696 0,66.658 54.037,120.695 120.696,120.695 C -54.037,120.695 0,66.658 0,0" />
                </g>
              </g>
            </g>
          </g>
        </g>
      </g>
      <g
         id="g2814">
        <g
           clip-path="url(#clipPath2818)"
           id="g2816">
          <g
             id="g2822">
            <g
               id="g2824" />
            <g
               id="g2830">
              <g
                 style="opacity:0.07000732"
                 id="g2832"
                 clip-path="url(#clipPath2826)">
                <path
                   inkscape:connector-curvature="0"
                   id="path2834"
                   style="fill:#000000;fill-opacity:1;fill-rule:nonzero;stroke:none"
                   d="m 1760.98,2452.142 -429.692,0 0,82.832 429.692,0 0,-82.832 z" />
              </g>
            </g>
          </g>
        </g>
      </g>
    </g>
  </g>
</svg>
